Coordinates
version=1
nRows=11
nColumns=36
inDegrees=yes

Units are S.I. units (second, meters, Newtons, ...)
If the header above contains a line with 'inDegrees', this indicates whether rotational values are in degrees (yes) or radians (no).

endheader
time	pelvis_tilt	pelvis_list	pelvis_rotation	pelvis_tx	pelvis_ty	pelvis_tz	hip_flexion_r	hip_adduction_r	hip_rotation_r	knee_angle_r	knee_angle_r_beta	ankle_angle_r	subtalar_angle_r	mtp_angle_r	hip_flexion_l	hip_adduction_l	hip_rotation_l	knee_angle_l	knee_angle_l_beta	ankle_angle_l	subtalar_angle_l	mtp_angle_l	lumbar_extension	lumbar_bending	lumbar_rotation	arm_flex_r	arm_add_r	arm_rot_r	elbow_flex_r	pro_sup_r	arm_flex_l	arm_add_l	arm_rot_l	elbow_flex_l	pro_sup_l
      1.46666670	      1.17207189	      1.37956259	      8.25974360	     -0.07096207	      1.34456417	     -0.09005264	     -5.61056988	     -0.69199503	      0.96842911	      0.60787067	      0.01060934	     12.30006746	     -0.35057696	     -7.49999987	     -2.20047878	      1.60654789	     12.29145341	      4.04000616	      0.07051141	      9.98928141	     -3.72309196	     -7.49999987	     -4.28452646	     -0.79701870	     -9.69177222	     -9.55809412	    -12.10176212	      4.48951049	     28.35419281	     72.17290438	    -12.39740316	    -10.09219684	     -1.08376876	     35.04011208	     74.15762191
      1.48333330	      1.02963180	      1.42536705	      8.33389705	     -0.06079062	      1.34439662	     -0.09296082	     -5.45884863	     -0.74997029	      0.75051466	      0.61358058	      0.01070900	     12.25512995	     -0.24744537	     -7.49999987	     -2.06544313	      1.67614807	     12.22270565	      3.91042368	      0.06824977	      9.91198745	     -3.57736670	     -7.49999987	     -4.11441693	     -0.82145419	     -9.75499074	    -10.07646078	    -12.05475267	      4.01148041	     28.60172558	     71.51444736	    -12.75521774	    -10.02832631	     -1.02300444	     34.98633289	     73.43401075
      1.50000000	      1.03786895	      1.41914870	      8.33317760	     -0.07033501	      1.34447899	     -0.09009945	     -5.43624493	     -0.74064820	      0.74662296	      0.59708764	      0.01042115	     12.25992358	     -0.25024216	     -7.49999987	     -2.02827043	      1.68331832	     12.22548500	      3.89441122	      0.06797030	      9.91588517	     -3.57651271	     -7.49999987	     -4.11209750	     -0.81790036	     -9.75684072	    -10.08597753	    -12.05816296	      4.01140140	     28.59878277	     71.51463125	    -12.76140703	    -10.02434510	     -1.02171313	     34.98564469	     73.43427069
      1.51666670	      0.77132693	      1.36884297	      8.34653943	     -0.06034522	      1.34419455	     -0.09302601	     -5.11016483	     -0.72588507	      0.69730846	      0.61413656	      0.01071871	     12.22814098	     -0.52134658	     -7.49999987	     -1.66789070	      1.70208967	     12.19189981	      3.99463511	      0.06971954	     10.10111275	     -3.30537859	     -7.49999987	     -3.87412001	     -0.78026668	     -9.85453503	    -10.36146855	    -12.01113722	      3.74668543	     28.01124289	     71.20727190	    -12.94512442	     -9.99289596	     -0.74767526	     34.72244820	     72.99404150
      1.53333330	      0.81620344	      1.37843574	      8.44545432	     -0.05993338	      1.34404765	     -0.09339029	     -5.19637047	     -0.73620101	      0.48837053	      0.60383350	      0.01053888	     12.26942336	     -0.31679687	     -7.49999987	     -1.76593423	      1.71571910	     12.23497136	      3.88987067	      0.06789105	      9.92006465	     -3.41190071	     -7.49999987	     -3.91204596	     -0.72744815	     -9.97843792	    -10.62604061	    -12.13873522	      4.14876364	     28.17788531	     70.32170772	    -13.25030758	    -10.01858227	     -0.24447082	     34.90364587	     71.51776506
      1.55000000	      0.79220707	      1.38973770	      8.35613981	     -0.06023027	      1.33724378	     -0.09310311	     -5.17402293	     -0.76429960	      0.62890780	      0.59849283	      0.01044567	     12.25128186	     -0.59058213	     -7.49999987	     -1.77618672	      1.75377503	     12.18150202	      3.91128016	      0.06826472	     10.00393814	     -3.26841621	     -7.49999987	     -3.90995918	     -0.74171217	     -9.93171685	    -10.95023860	    -12.20938511	      3.92169057	     28.55430302	     70.30069142	    -13.68351661	     -9.98346415	     -0.43524954	     35.30873977	     71.44726676
      1.56666670	      0.75704456	      1.40055507	      8.40343919	     -0.05975822	      1.34402567	     -0.09341960	     -5.14089442	     -0.77661111	      0.62694704	      0.63760548	      0.01112831	     12.30340883	     -0.58796394	     -7.49999987	     -1.73276364	      1.77579250	     12.15099963	      3.94284498	      0.06881563	      9.96583616	     -3.27157728	     -7.49999987	     -3.95535351	     -0.72376610	     -9.88105715	    -10.92703716	    -12.18571461	      3.92516104	     28.55438560	     70.30574820	    -13.73997476	     -9.94131808	     -0.42817260	     35.29897729	     71.45051317
      1.58333330	      1.00565693	      1.46592015	      8.46539586	     -0.06007791	      1.34442903	     -0.09331230	     -5.46779418	     -0.82124279	      0.30229155	      0.58212599	      0.01016002	     12.51020486	      0.06201950	     -7.49999987	     -2.14493118	      1.80638873	     12.24660588	      3.76283873	      0.06567393	      9.68420764	     -3.47001236	     -7.49999987	     -4.25425194	     -0.74495406	     -9.89726977	    -10.82507011	    -12.03077981	      3.63609911	     28.42941897	     68.76129521	    -13.76634955	     -9.87736620	     -0.43569728	     35.33965205	     69.75968602
      1.60000000	      0.87963456	      1.48643075	      8.36582064	     -0.05975019	      1.34046842	     -0.09328868	     -5.30829496	     -0.87152920	      0.56300208	      0.57808166	      0.01008943	     12.41676394	     -0.23695425	     -7.49999987	     -2.05237276	      1.84689622	     12.17769466	      3.74377573	      0.06534121	      9.61791558	     -3.64035973	     -7.49999987	     -4.02020362	     -0.81794216	     -9.92742724	    -10.43466018	    -11.98816232	      4.06537346	     27.59436501	     69.45992987	    -13.98643216	     -9.93022837	     -0.19380207	     35.35434748	     70.26117513
      1.61666670	      0.83482779	      1.48039527	      8.34953146	     -0.06010332	      1.34070876	     -0.09298113	     -5.20418435	     -0.89676448	      0.37255630	      0.56206624	      0.00980991	     12.46320849	     -0.07156215	     -7.49999987	     -2.04811578	      1.83604687	     12.09646043	      3.70398772	      0.06464678	      9.63630893	     -3.56673396	     -7.49999987	     -4.02072854	     -0.80749338	    -10.12612017	    -10.07045561	    -12.04112534	      4.81651069	     27.20322538	     69.24818935	    -14.21855006	     -9.98600181	     -0.08036454	     35.52359870	     69.70369572
      1.63333330	     -0.38757969	      1.21480143	      8.21307113	     -0.06106751	      1.33911610	     -0.09307386	     -2.93906398	     -0.87401708	      0.33231117	      2.22793807	      0.03888485	     13.20009330	     -0.16680116	     -7.49999987	      0.12019090	      1.83705116	     11.22114431	      5.31223049	      0.09271591	     10.64445239	     -2.98855320	     -7.49999987	     -2.88653390	     -0.64129355	     -9.85563479	    -10.90610209	    -12.33027359	      4.73382298	     29.25640564	     68.70806321	    -14.85696850	     -9.98468270	     -0.17500637	     37.05751266	     69.13642170
